<svg xmlns="http://www.w3.org/2000/svg" viewBox="0 0 500 360" role="img">
<rect width="500" height="360" fill="#FBF4EA"/>
<g><rect x="70" y="60" width="72" height="60" fill="#B5482E"/><rect x="142" y="60" width="72" height="60" fill="#fff"/>
<rect x="214" y="60" width="72" height="60" fill="#B5482E"/><rect x="286" y="60" width="72" height="60" fill="#fff"/><rect x="358" y="60" width="72" height="60" fill="#B5482E"/></g>
<rect x="70" y="60" width="360" height="60" fill="none" stroke="#B5482E" stroke-width="4"/>
<rect x="90" y="120" width="8" height="200" fill="#7A5A2E"/><rect x="402" y="120" width="8" height="200" fill="#7A5A2E"/>
<rect x="70" y="240" width="360" height="24" rx="6" fill="#A9743C"/>
<circle cx="140" cy="222" r="18" fill="#1F5F74"/><path d="M200 246v-34q0-8 8-8h28q8 0 8 8v34z" fill="#E8A33D"/>
<circle cx="300" cy="224" r="16" fill="#fff" stroke="#B5482E" stroke-width="5"/><polygon points="350,246 372,204 394,246" fill="#C79A55"/>
</svg>
